<!--
tags: [ballot, vote, election, democracy, box]
category: System
version: "1.0"
-->
<svg
  xmlns="http://www.w3.org/2000/svg"
  width="24"
  height="24"
  viewBox="0 0 24 24"
  fill="none"
  stroke="currentColor"
  stroke-width="2"
  stroke-linecap="round"
  stroke-linejoin="round"
>
  <path d="M14 2l0 4l-4 0l0 -4" />
  <path d="M14 6l-4 0l-1 4h6z" />
  <path d="M3 14a1 1 0 0 1 1 -1h16a1 1 0 0 1 1 1v6a1 1 0 0 1 -1 1h-16a1 1 0 0 1 -1 -1v-6" />
  <path d="M9 13v-3" />
  <path d="M15 13v-3" />
  <path d="M9 17h6" />
</svg>
